# xmcd
#
# Track frame offsets: 
#        150
#        13801
#        26219
#        45769
#        65654
#        81702
#        93960
#        105650
#        116690
#        133895
#        148940
#        175490
#        190429
#        201267
#        214302
#        230765
#        248684
#        267018
#
# Disc length: 3791 seconds
#
# Revision: 1
# Processed by: cddbd v1.5.2PL0 Copyright (c) Steve Scherf et al.
# Submitted via: ExactAudioCopy v0.99pb5
#
DISCID=170ecd12
DTITLE=Yoni Rechter - From the Songs of Yoni Rechter
DYEAR=2004
DGENRE=Jazz
TTITLE0=HaNaknik MiZeitlin
TTITLE1=Zo Ota HaAhava
TTITLE2=Negi'a Achat Raka
TTITLE3=Duet
TTITLE4=Tov Shebat
TTITLE5=Ogen Harem
TTITLE6=Shir Ahava Standarti
TTITLE7=Ma Osot HaAyalot
TTITLE8=Kelim Shluvim
TTITLE9=HaYamim Holfim
TTITLE10='Erev 'Ironi
TTITLE11=HaShir al Ha'Aretz
TTITLE12=HaYalda Hachi Yafa BaGan
TTITLE13=Bil'adayich
TTITLE14=K'she'Or Dolek BeChalonech
TTITLE15=Atur Mitzheh Zahav Shachor
TTITLE16=Dma'ot Shel Malachim
TTITLE17=Shir Nevui Kosmi 'Aliz
EXTD=
EXTT0=
EXTT1=
EXTT2=
EXTT3=
EXTT4=
EXTT5=
EXTT6=
EXTT7=
EXTT8=
EXTT9=
EXTT10=
EXTT11=
EXTT12=
EXTT13=
EXTT14=
EXTT15=
EXTT16=
EXTT17=
PLAYORDER=
